<svg xmlns="http://www.w3.org/2000/svg" viewBox="0 0 860 100" width="860" height="100">
  <defs>
    <linearGradient id="bg4" x1="0" y1="0" x2="0" y2="1">
      <stop offset="0%" stop-color="#1A1A2E"/>
      <stop offset="100%" stop-color="#0A0A15"/>
    </linearGradient>
    <radialGradient id="r1" cx="50%" cy="40%" r="60%"><stop offset="0%" stop-color="#FF4444"/><stop offset="100%" stop-color="#CC0000"/></radialGradient>
    <radialGradient id="r2" cx="50%" cy="40%" r="60%"><stop offset="0%" stop-color="#FFE566"/><stop offset="100%" stop-color="#F5C518"/></radialGradient>
    <radialGradient id="r3" cx="50%" cy="40%" r="60%"><stop offset="0%" stop-color="#61DAFB"/><stop offset="100%" stop-color="#0EA5E9"/></radialGradient>
    <radialGradient id="r4" cx="50%" cy="40%" r="60%"><stop offset="0%" stop-color="#4CAF50"/><stop offset="100%" stop-color="#2E7D32"/></radialGradient>
    <radialGradient id="r5" cx="50%" cy="40%" r="60%"><stop offset="0%" stop-color="#A855F7"/><stop offset="100%" stop-color="#7C3AED"/></radialGradient>
    <radialGradient id="wh" cx="50%" cy="40%" r="60%"><stop offset="0%" stop-color="#FFFFFF"/><stop offset="100%" stop-color="#CCCCCC"/></radialGradient>
    <style>
      .spin1 { animation: spinBall 4s linear infinite; transform-origin: 20px 20px; }
      .spin2 { animation: spinBall 3s linear infinite 0.5s; transform-origin: 20px 20px; }
      .spin3 { animation: spinBall 5s linear infinite 1s; transform-origin: 20px 20px; }
      .spin4 { animation: spinBall 3.5s linear infinite 1.5s; transform-origin: 20px 20px; }
      .spin5 { animation: spinBall 4.5s linear infinite 0.3s; transform-origin: 20px 20px; }
      .quote { animation: quoteFade 4s ease-in-out infinite; }
      .border-pulse { animation: borderPulse 3s ease-in-out infinite; }
      @keyframes spinBall {
        from { transform: rotate(0deg); }
        to   { transform: rotate(360deg); }
      }
      @keyframes quoteFade {
        0%,100% { opacity:0.7; }
        50%     { opacity:1; }
      }
      @keyframes borderPulse {
        0%,100% { stroke:#EE1515; stroke-opacity:0.6; }
        50%     { stroke:#FF4444; stroke-opacity:1; }
      }
    </style>
  </defs>

  <rect width="860" height="100" fill="url(#bg4)" rx="14"/>
  <rect width="858" height="98" x="1" y="1" fill="none" stroke="#EE1515" stroke-width="1.5" rx="13" class="border-pulse"/>

  <!-- Spinning Pokéballs row -->
  <!-- Ball 1 (Red) -->
  <g transform="translate(70, 30)" class="spin1">
    <path d="M 0,20 A 20,20 0 0,1 40,20 Z" fill="url(#r1)"/>
    <path d="M 0,20 A 20,20 0 0,0 40,20 Z" fill="url(#wh)"/>
    <rect x="0" y="18" width="40" height="4" fill="#111"/>
    <circle cx="20" cy="20" r="6" fill="#333"/>
    <circle cx="20" cy="20" r="4" fill="url(#wh)"/>
  </g>

  <!-- Ball 2 (Yellow) -->
  <g transform="translate(200, 30)" class="spin2">
    <path d="M 0,20 A 20,20 0 0,1 40,20 Z" fill="url(#r2)"/>
    <path d="M 0,20 A 20,20 0 0,0 40,20 Z" fill="url(#wh)"/>
    <rect x="0" y="18" width="40" height="4" fill="#111"/>
    <circle cx="20" cy="20" r="6" fill="#333"/>
    <circle cx="20" cy="20" r="4" fill="url(#wh)"/>
  </g>

  <!-- Ball 3 (Cyan) -->
  <g transform="translate(330, 30)" class="spin3">
    <path d="M 0,20 A 20,20 0 0,1 40,20 Z" fill="url(#r3)"/>
    <path d="M 0,20 A 20,20 0 0,0 40,20 Z" fill="url(#wh)"/>
    <rect x="0" y="18" width="40" height="4" fill="#111"/>
    <circle cx="20" cy="20" r="6" fill="#333"/>
    <circle cx="20" cy="20" r="4" fill="url(#wh)"/>
  </g>

  <!-- Ball 4 (Green) -->
  <g transform="translate(460, 30)" class="spin4">
    <path d="M 0,20 A 20,20 0 0,1 40,20 Z" fill="url(#r4)"/>
    <path d="M 0,20 A 20,20 0 0,0 40,20 Z" fill="url(#wh)"/>
    <rect x="0" y="18" width="40" height="4" fill="#111"/>
    <circle cx="20" cy="20" r="6" fill="#333"/>
    <circle cx="20" cy="20" r="4" fill="url(#wh)"/>
  </g>

  <!-- Ball 5 (Purple) -->
  <g transform="translate(590, 30)" class="spin5">
    <path d="M 0,20 A 20,20 0 0,1 40,20 Z" fill="url(#r5)"/>
    <path d="M 0,20 A 20,20 0 0,0 40,20 Z" fill="url(#wh)"/>
    <rect x="0" y="18" width="40" height="4" fill="#111"/>
    <circle cx="20" cy="20" r="6" fill="#333"/>
    <circle cx="20" cy="20" r="4" fill="url(#wh)"/>
  </g>

  <!-- Ball 6 (Red again) -->
  <g transform="translate(720, 30)" class="spin1">
    <path d="M 0,20 A 20,20 0 0,1 40,20 Z" fill="url(#r1)"/>
    <path d="M 0,20 A 20,20 0 0,0 40,20 Z" fill="url(#wh)"/>
    <rect x="0" y="18" width="40" height="4" fill="#111"/>
    <circle cx="20" cy="20" r="6" fill="#333"/>
    <circle cx="20" cy="20" r="4" fill="url(#wh)"/>
  </g>

  <!-- Quote -->
  <text x="430" y="84" font-family="'Courier New',monospace" font-size="11" fill="#F5C518"
        text-anchor="middle" letter-spacing="1" class="quote">
    ✦ Gotta Build Em All · RKIVLN · Volt Media · 2026 ✦
  </text>
</svg>
